<svg width="815" height="348" viewBox="0 0 815 348" fill="none" xmlns="http://www.w3.org/2000/svg">
<path d="M24.79 0.800049H0V273.44H24.79V0.800049Z" fill="#77E1FF"/>
<path d="M74.3598 0.800049H49.5698V273.44H74.3598V0.800049Z" fill="#77E1FF"/>
<path d="M123.93 0.800049H99.1401V273.44H123.93V0.800049Z" fill="#77E1FF"/>
<path d="M173.5 0.800049H148.71V273.44H173.5V0.800049Z" fill="#77E1FF"/>
<path d="M223.08 0.800049H198.29V273.44H223.08V0.800049Z" fill="#77E1FF"/>
<path d="M272.65 0.800049H247.86V273.44H272.65V0.800049Z" fill="#77E1FF"/>
<path d="M99.1499 75.16H74.3599V347.8H99.1499V75.16Z" fill="#161EDE"/>
<path d="M148.72 75.16H123.93V347.8H148.72V75.16Z" fill="#161EDE"/>
<path d="M198.29 75.16H173.5V347.8H198.29V75.16Z" fill="#161EDE"/>
<path d="M247.86 75.16H223.07V347.8H247.86V75.16Z" fill="#161EDE"/>
<path d="M297.43 75.16H272.64V347.8H297.43V75.16Z" fill="#161EDE"/>
<path d="M347 75.16H322.21V347.8H347V75.16Z" fill="#161EDE"/>
<path d="M477.72 310.63H448.54V216.08H479.01C488.18 216.08 496.03 217.97 502.55 221.74C509.07 225.51 514.08 230.91 517.55 237.94C521.03 244.97 522.77 253.38 522.77 263.17C522.77 272.96 521.02 281.49 517.51 288.58C514 295.67 508.89 301.12 502.18 304.92C495.47 308.72 487.31 310.62 477.71 310.62L477.72 310.63ZM459.99 300.47H476.98C484.8 300.47 491.27 298.96 496.41 295.95C501.55 292.94 505.38 288.64 507.91 283.07C510.44 277.5 511.7 270.87 511.7 263.17C511.7 255.47 510.45 248.96 507.96 243.43C505.47 237.91 501.74 233.66 496.79 230.69C491.83 227.72 485.66 226.23 478.28 226.23H460V300.46L459.99 300.47Z" fill="#090A3A"/>
<path d="M569.31 312.1C562.91 312.1 557.3 310.58 552.48 307.53C547.66 304.48 543.91 300.22 541.22 294.74C538.53 289.26 537.18 282.86 537.18 275.53C537.18 268.2 538.53 261.7 541.22 256.19C543.91 250.68 547.67 246.4 552.48 243.36C557.29 240.32 562.91 238.79 569.31 238.79C575.71 238.79 581.32 240.31 586.14 243.36C590.96 246.41 594.71 250.69 597.4 256.19C600.09 261.7 601.44 268.15 601.44 275.53C601.44 282.91 600.09 289.26 597.4 294.74C594.71 300.22 590.95 304.48 586.14 307.53C581.32 310.58 575.71 312.1 569.31 312.1ZM569.31 302.31C574.17 302.31 578.17 301.06 581.31 298.57C584.45 296.08 586.77 292.8 588.28 288.74C589.79 284.68 590.54 280.28 590.54 275.54C590.54 270.8 589.79 266.38 588.28 262.29C586.77 258.2 584.45 254.89 581.31 252.37C578.17 249.85 574.17 248.58 569.31 248.58C564.45 248.58 560.45 249.84 557.31 252.37C554.17 254.89 551.85 258.2 550.34 262.29C548.83 266.38 548.08 270.8 548.08 275.54C548.08 280.28 548.83 284.68 550.34 288.74C551.85 292.8 554.17 296.08 557.31 298.57C560.45 301.06 564.45 302.31 569.31 302.31Z" fill="#090A3A"/>
<path d="M646.87 312.1C640.22 312.1 634.5 310.53 629.7 307.39C624.9 304.25 621.2 299.93 618.62 294.42C616.04 288.91 614.74 282.62 614.74 275.54C614.74 268.46 616.07 261.98 618.73 256.45C621.39 250.92 625.12 246.6 629.9 243.48C634.69 240.36 640.28 238.79 646.68 238.79C651.67 238.79 656.16 239.71 660.16 241.56C664.16 243.41 667.44 245.99 669.99 249.32C672.54 252.64 674.13 256.52 674.74 260.95H663.84C663.01 257.72 661.17 254.85 658.32 252.34C655.47 249.83 651.65 248.58 646.85 248.58C642.6 248.58 638.89 249.68 635.7 251.88C632.51 254.08 630.04 257.17 628.27 261.16C626.5 265.15 625.62 269.82 625.62 275.17C625.62 280.52 626.49 285.42 628.23 289.48C629.97 293.54 632.43 296.7 635.62 298.94C638.81 301.18 642.55 302.31 646.86 302.31C649.69 302.31 652.26 301.82 654.57 300.83C656.88 299.85 658.83 298.43 660.43 296.58C662.03 294.73 663.17 292.52 663.85 289.93H674.75C674.13 294.12 672.62 297.88 670.2 301.22C667.78 304.56 664.6 307.21 660.64 309.16C656.68 311.12 652.09 312.09 646.86 312.09L646.87 312.1Z" fill="#090A3A"/>
<path d="M740.86 255.6L731.07 258.37C730.45 256.74 729.55 255.15 728.37 253.59C727.19 252.04 725.58 250.75 723.55 249.74C721.52 248.73 718.92 248.22 715.75 248.22C711.41 248.22 707.8 249.21 704.92 251.2C702.04 253.18 700.6 255.7 700.6 258.75C700.6 261.46 701.58 263.6 703.55 265.17C705.52 266.74 708.6 268.05 712.78 269.09L723.31 271.68C729.65 273.22 734.37 275.56 737.48 278.72C740.59 281.88 742.14 285.93 742.14 290.89C742.14 294.95 740.98 298.58 738.65 301.78C736.33 304.98 733.09 307.5 728.93 309.35C724.78 311.2 719.94 312.12 714.43 312.12C707.2 312.12 701.21 310.55 696.47 307.41C691.73 304.27 688.73 299.69 687.47 293.65L697.81 291.07C698.8 294.89 700.66 297.75 703.42 299.66C706.17 301.57 709.78 302.52 714.25 302.52C719.33 302.52 723.37 301.43 726.37 299.27C729.37 297.1 730.87 294.49 730.87 291.44C730.87 288.98 730.01 286.91 728.28 285.23C726.55 283.55 723.91 282.3 720.34 281.47L708.52 278.7C702.03 277.16 697.26 274.77 694.23 271.52C691.2 268.27 689.68 264.2 689.68 259.31C689.68 255.31 690.81 251.77 693.07 248.69C695.33 245.61 698.43 243.2 702.35 241.44C706.27 239.68 710.73 238.81 715.71 238.81C722.73 238.81 728.24 240.35 732.26 243.43C736.28 246.51 739.13 250.57 740.82 255.62L740.86 255.6Z" fill="#090A3A"/>
<path d="M446.3 37.98H488.27C501.69 37.98 512.26 41.14 519.98 47.47C527.7 53.67 531.56 61.9 531.56 72.16C531.56 79.25 529.53 85.45 525.48 90.77C521.56 96.09 516.49 99.5 510.29 101.02C517.25 102.29 523.08 105.51 527.76 110.7C532.57 115.89 534.98 122.85 534.98 131.59C534.98 141.72 531.5 150.01 524.54 156.47C517.7 162.8 508.02 165.96 495.49 165.96H446.31V37.98H446.3ZM465.86 54.12V93.43H483.52C493.01 93.43 500.04 91.53 504.6 87.73C509.28 83.81 511.63 78.74 511.63 72.54C511.63 67.1 509.54 62.67 505.36 59.25C501.31 55.83 495.11 54.12 486.75 54.12H465.86ZM465.86 149.82H490.93C507.01 149.82 515.05 143.17 515.05 129.88C515.05 123.42 512.83 118.42 508.4 114.88C504.1 111.21 497.64 109.37 489.03 109.37H465.86V149.82Z" fill="#090A3A"/>
<path d="M615.69 69.6901H634.3V165.96H615.69V149.44C610.63 161.21 600.63 167.1 585.69 167.1C576.2 167.1 568.66 164.31 563.09 158.74C557.52 153.04 554.73 145.26 554.73 135.38V69.6801H573.53V130.82C573.53 137.4 575.11 142.47 578.28 146.01C581.57 149.43 586.07 151.14 591.76 151.14C598.98 151.14 604.74 148.61 609.04 143.54C613.47 138.48 615.69 131.32 615.69 122.08V69.67V69.6901Z" fill="#090A3A"/>
<path d="M710.03 31.53V47.86C707.12 46.59 704.08 45.96 700.92 45.96C691.68 45.96 687.06 51.47 687.06 62.48V69.7H707.38V84.13H687.06V165.97H668.45V84.13H653.07V69.7H668.45V62.29C668.45 52.29 671.11 44.44 676.43 38.74C681.87 32.92 689.47 30.01 699.22 30.01C702.76 30.01 706.37 30.52 710.04 31.53H710.03Z" fill="#090A3A"/>
<path d="M811.64 58.45C809.91 54.4 807.51 50.84 804.44 47.77C801.37 44.7 797.81 42.3 793.76 40.57C789.71 38.84 785.37 37.98 780.74 37.98C776.11 37.98 771.77 38.84 767.72 40.57C763.67 42.3 760.12 44.7 757.04 47.77C753.97 50.84 751.57 54.4 749.84 58.45C748.11 62.5 747.25 66.84 747.25 71.47C747.25 76.1 748.11 80.44 749.84 84.49C751.57 88.54 753.98 92.1 757.04 95.17C760.11 98.24 763.67 100.64 767.72 102.37C771.77 104.1 776.11 104.96 780.74 104.96C785.37 104.96 789.72 104.1 793.76 102.37C797.81 100.64 801.37 98.23 804.44 95.17C807.51 92.1 809.91 88.54 811.64 84.49C813.37 80.44 814.23 76.11 814.23 71.47C814.23 66.83 813.37 62.49 811.64 58.45ZM804.31 85.19C801.85 89.31 798.57 92.59 794.45 95.05C790.33 97.51 785.76 98.73 780.74 98.73C775.72 98.73 771.14 97.51 767.03 95.05C762.92 92.59 759.63 89.31 757.17 85.19C754.71 81.07 753.49 76.5 753.49 71.48C753.49 66.46 754.71 61.88 757.17 57.77C759.63 53.65 762.91 50.36 767.03 47.91C771.15 45.45 775.72 44.22 780.74 44.22C785.76 44.22 790.34 45.45 794.45 47.91C798.57 50.36 801.85 53.65 804.31 57.77C806.77 61.89 807.99 66.46 807.99 71.48C807.99 76.5 806.77 81.08 804.31 85.19Z" fill="#090A3A"/>
<path d="M788.52 74.27C788.52 74.27 788.57 74.24 788.59 74.23C790.1 73.42 791.37 72.26 792.35 70.74C793.34 69.22 793.84 67.41 793.84 65.32C793.84 63.23 793.36 61.47 792.4 60.02C791.44 58.59 790.22 57.5 788.75 56.75C787.29 56.02 785.77 55.64 784.21 55.64H769.39V86.54H774.8V75.44H783.28L789.08 86.54H795.11L788.53 74.26L788.52 74.27ZM774.8 59.88H782.58C783.92 59.88 785.16 60.3 786.29 61.13C787.41 61.97 787.99 63.37 787.99 65.32C787.99 67.27 787.42 68.68 786.29 69.7C785.16 70.72 783.88 71.22 782.45 71.22H774.8V59.87V59.88Z" fill="#090A3A"/>
</svg>
