<svg width="1200" height="630" viewBox="0 0 1200 630" fill="none" xmlns="http://www.w3.org/2000/svg">
<rect width="1200" height="630" fill="white"/>
<path d="M193.217 216H179V371.57H193.217V216Z" fill="#77E1FF"/>
<path d="M221.647 216H207.429V371.57H221.647V216Z" fill="#77E1FF"/>
<path d="M250.076 216H235.858V371.57H250.076V216Z" fill="#77E1FF"/>
<path d="M278.505 216H264.288V371.57H278.505V216Z" fill="#77E1FF"/>
<path d="M306.94 216H292.723V371.57H306.94V216Z" fill="#77E1FF"/>
<path d="M335.369 216H321.152V371.57H335.369V216Z" fill="#77E1FF"/>
<path d="M235.864 258.43H221.647V414H235.864V258.43Z" fill="#161EDE"/>
<path d="M264.293 258.43H250.076V414H264.293V258.43Z" fill="#161EDE"/>
<path d="M292.722 258.43H278.505V414H292.722V258.43Z" fill="#161EDE"/>
<path d="M321.152 258.43H306.934V414H321.152V258.43Z" fill="#161EDE"/>
<path d="M349.581 258.43H335.364V414H349.581V258.43Z" fill="#161EDE"/>
<path d="M378.01 258.43H363.793V414H378.01V258.43Z" fill="#161EDE"/>
<path d="M465.901 352.323C465.586 349.653 464.296 347.582 462.036 346.104C459.776 344.626 457.006 343.89 453.72 343.89C451.317 343.89 449.224 344.278 447.434 345.048C445.645 345.824 444.246 346.885 443.253 348.238C442.255 349.59 441.756 351.125 441.756 352.848C441.756 354.286 442.106 355.524 442.8 356.552C443.494 357.579 444.395 358.429 445.49 359.108C446.585 359.787 447.733 360.335 448.931 360.768C450.13 361.196 451.237 361.544 452.24 361.807L457.746 363.279C459.157 363.65 460.734 364.158 462.472 364.808C464.21 365.459 465.879 366.343 467.479 367.456C469.079 368.574 470.392 370.001 471.436 371.735C472.48 373.476 472.996 375.61 472.996 378.137C472.996 381.053 472.233 383.689 470.708 386.04C469.182 388.391 466.957 390.263 464.038 391.649C461.118 393.036 457.574 393.732 453.405 393.732C449.522 393.732 446.161 393.11 443.328 391.86C440.495 390.611 438.269 388.876 436.658 386.645C435.041 384.414 434.129 381.824 433.917 378.874H440.695C440.873 380.911 441.567 382.594 442.772 383.918C443.982 385.242 445.519 386.229 447.377 386.868C449.241 387.507 451.248 387.826 453.399 387.826C455.905 387.826 458.153 387.415 460.149 386.6C462.145 385.784 463.722 384.642 464.886 383.176C466.051 381.709 466.636 379.992 466.636 378.023C466.636 376.232 466.131 374.777 465.127 373.653C464.124 372.528 462.799 371.615 461.159 370.914C459.518 370.212 457.74 369.596 455.836 369.071L449.166 367.176C444.928 365.966 441.579 364.232 439.107 361.984C436.635 359.735 435.402 356.797 435.402 353.162C435.402 350.144 436.228 347.502 437.88 345.248C439.531 342.994 441.751 341.236 444.549 339.981C447.348 338.726 450.474 338.098 453.938 338.098C457.402 338.098 460.539 338.714 463.258 339.953C465.976 341.191 468.132 342.88 469.733 345.025C471.333 347.165 472.17 349.601 472.262 352.323H465.907H465.901Z" fill="#090A3A"/>
<path d="M499.469 393.629C495.656 393.629 492.375 392.734 489.622 390.942C486.869 389.15 484.747 386.685 483.268 383.541C481.788 380.397 481.042 376.808 481.042 372.768C481.042 368.728 481.805 365.031 483.331 361.875C484.856 358.725 486.995 356.255 489.737 354.474C492.484 352.694 495.69 351.798 499.36 351.798C502.222 351.798 504.797 352.323 507.091 353.379C509.386 354.434 511.267 355.907 512.729 357.807C514.192 359.701 515.103 361.915 515.453 364.443H509.202C508.726 362.6 507.671 360.962 506.036 359.53C504.402 358.098 502.211 357.385 499.458 357.385C497.021 357.385 494.893 358.012 493.063 359.268C491.234 360.523 489.817 362.286 488.802 364.563C487.787 366.839 487.282 369.504 487.282 372.557C487.282 375.61 487.781 378.406 488.779 380.722C489.777 383.039 491.188 384.842 493.017 386.12C494.847 387.404 496.992 388.043 499.464 388.043C501.087 388.043 502.561 387.764 503.885 387.199C505.21 386.639 506.329 385.829 507.246 384.774C508.164 383.718 508.818 382.457 509.208 380.979H515.459C515.103 383.37 514.237 385.515 512.85 387.421C511.462 389.327 509.638 390.839 507.367 391.952C505.096 393.064 502.463 393.624 499.464 393.624L499.469 393.629Z" fill="#090A3A"/>
<path d="M530.818 368.443V392.785H524.572V338.84H530.818V358.651H531.345C532.297 356.563 533.731 354.897 535.647 353.659C537.562 352.42 540.114 351.804 543.309 351.804C546.079 351.804 548.505 352.352 550.593 353.447C552.674 354.543 554.298 356.22 555.45 358.48C556.603 360.74 557.182 363.604 557.182 367.079V392.791H550.937V367.501C550.937 364.289 550.099 361.801 548.436 360.032C546.773 358.263 544.462 357.385 541.514 357.385C539.466 357.385 537.637 357.813 536.02 358.674C534.402 359.536 533.135 360.791 532.206 362.44C531.277 364.089 530.818 366.092 530.818 368.449V368.443Z" fill="#090A3A"/>
<path d="M585.675 393.629C581.758 393.629 578.38 392.768 575.546 391.033C572.713 389.304 570.534 386.879 569.008 383.764C567.483 380.648 566.72 377.013 566.72 372.871C566.72 368.728 567.483 365.071 569.008 361.898C570.534 358.731 572.673 356.255 575.414 354.469C578.162 352.688 581.368 351.793 585.038 351.793C587.154 351.793 589.248 352.146 591.312 352.848C593.377 353.55 595.258 354.686 596.95 356.26C598.642 357.83 599.995 359.907 600.999 362.491C602.003 365.071 602.507 368.249 602.507 372.026V374.663H571.159V369.287H596.153C596.153 367.005 595.7 364.968 594.788 363.176C593.876 361.384 592.591 359.969 590.922 358.937C589.253 357.898 587.292 357.385 585.032 357.385C582.543 357.385 580.393 357.995 578.586 359.216C576.774 360.437 575.386 362.024 574.417 363.969C573.447 365.921 572.96 368.009 572.96 370.24V373.824C572.96 376.882 573.493 379.467 574.56 381.584C575.627 383.701 577.112 385.31 579.022 386.405C580.926 387.501 583.145 388.055 585.669 388.055C587.309 388.055 588.795 387.821 590.131 387.358C591.461 386.896 592.614 386.189 593.583 385.253C594.553 384.311 595.304 383.142 595.832 381.738L601.871 383.427C601.234 385.464 600.167 387.25 598.665 388.785C597.162 390.32 595.31 391.518 593.107 392.368C590.899 393.219 588.422 393.647 585.669 393.647L585.675 393.629Z" fill="#090A3A"/>
<path d="M612.045 392.785V352.323H618.084V358.646H618.612C619.46 356.483 620.825 354.805 622.718 353.601C624.605 352.397 626.876 351.798 629.52 351.798C632.164 351.798 634.441 352.397 636.23 353.601C638.019 354.805 639.419 356.483 640.428 358.646H640.853C641.896 356.557 643.456 354.891 645.538 353.653C647.62 352.415 650.121 351.798 653.028 351.798C656.664 351.798 659.641 352.928 661.952 355.182C664.264 357.442 665.422 360.945 665.422 365.704V392.785H659.171V365.704C659.171 362.72 658.351 360.586 656.71 359.302C655.07 358.018 653.137 357.379 650.912 357.379C648.05 357.379 645.836 358.235 644.265 359.947C642.694 361.658 641.908 363.821 641.908 366.44V392.779H635.553V365.071C635.553 362.771 634.802 360.911 633.305 359.501C631.803 358.086 629.87 357.379 627.507 357.379C625.884 357.379 624.37 357.807 622.965 358.668C621.56 359.53 620.43 360.717 619.575 362.24C618.721 363.758 618.291 365.51 618.291 367.496V392.785H612.045Z" fill="#090A3A"/>
<path d="M688.827 393.732C686.252 393.732 683.912 393.247 681.813 392.271C679.714 391.296 678.045 389.886 676.806 388.032C675.568 386.177 674.954 383.935 674.954 381.304C674.954 378.988 675.413 377.105 676.33 375.655C677.248 374.206 678.475 373.071 680.012 372.243C681.549 371.416 683.247 370.8 685.111 370.389C686.975 369.978 688.85 369.647 690.737 369.402C693.209 369.088 695.216 368.842 696.759 368.677C698.302 368.511 699.432 368.226 700.148 367.821C700.865 367.416 701.221 366.714 701.221 365.715V365.504C701.221 362.908 700.51 360.888 699.087 359.444C697.665 358.006 695.52 357.282 692.641 357.282C689.762 357.282 687.319 357.932 685.627 359.233C683.935 360.534 682.742 361.921 682.054 363.393L676.124 361.287C677.185 358.828 678.601 356.911 680.374 355.53C682.146 354.149 684.09 353.185 686.201 352.631C688.311 352.078 690.387 351.804 692.435 351.804C693.742 351.804 695.245 351.958 696.948 352.266C698.652 352.574 700.303 353.202 701.898 354.149C703.498 355.096 704.823 356.529 705.884 358.44C706.945 360.352 707.472 362.919 707.472 366.132V392.791H701.227V387.313H700.911C700.487 388.191 699.781 389.133 698.795 390.132C697.809 391.13 696.489 391.986 694.849 392.688C693.209 393.39 691.202 393.743 688.839 393.743L688.827 393.732ZM689.779 388.146C692.251 388.146 694.339 387.661 696.042 386.696C697.745 385.732 699.036 384.482 699.908 382.959C700.779 381.435 701.221 379.826 701.221 378.137V372.448C700.957 372.762 700.378 373.048 699.489 373.304C698.6 373.561 697.573 373.778 696.421 373.961C695.262 374.143 694.144 374.303 693.06 374.434C691.976 374.565 691.098 374.674 690.427 374.765C688.804 374.976 687.29 375.313 685.885 375.781C684.48 376.249 683.35 376.939 682.496 377.864C681.641 378.788 681.211 380.038 681.211 381.618C681.211 383.781 682.02 385.407 683.631 386.503C685.243 387.598 687.296 388.146 689.785 388.146H689.779Z" fill="#090A3A"/>
<path d="M740.719 392.785V338.84H759.043C763.281 338.84 766.757 339.553 769.475 340.985C772.194 342.418 774.207 344.38 775.514 346.874C776.822 349.367 777.476 352.203 777.476 355.382C777.476 358.56 776.822 361.379 775.514 363.838C774.207 366.297 772.205 368.226 769.504 369.618C766.803 371.011 763.35 371.712 759.152 371.712H744.326V365.812H758.94C761.836 365.812 764.17 365.39 765.942 364.546C767.714 363.701 769.005 362.503 769.808 360.951C770.611 359.399 771.012 357.539 771.012 355.382C771.012 353.225 770.605 351.336 769.796 349.721C768.982 348.106 767.686 346.857 765.902 345.967C764.118 345.082 761.761 344.637 758.831 344.637H747.286V392.791H740.719V392.785ZM766.24 368.551L779.586 392.785H771.958L758.825 368.551H766.24Z" fill="#090A3A"/>
<path d="M804.156 393.629C800.239 393.629 796.861 392.768 794.027 391.033C791.194 389.304 789.015 386.879 787.489 383.764C785.964 380.648 785.201 377.013 785.201 372.871C785.201 368.728 785.964 365.071 787.489 361.898C789.015 358.731 791.154 356.255 793.895 354.469C796.643 352.688 799.849 351.793 803.519 351.793C805.635 351.793 807.729 352.146 809.793 352.848C811.858 353.55 813.739 354.686 815.431 356.26C817.123 357.83 818.476 359.907 819.48 362.491C820.484 365.071 820.988 368.249 820.988 372.026V374.663H789.64V369.287H814.634C814.634 367.005 814.181 364.968 813.269 363.176C812.357 361.384 811.072 359.969 809.403 358.937C807.734 357.898 805.773 357.385 803.513 357.385C801.024 357.385 798.874 357.995 797.067 359.216C795.255 360.437 793.867 362.024 792.898 363.969C791.928 365.921 791.441 368.009 791.441 370.24V373.824C791.441 376.882 791.974 379.467 793.041 381.584C794.108 383.701 795.593 385.31 797.503 386.405C799.407 387.501 801.626 388.055 804.15 388.055C805.79 388.055 807.276 387.821 808.612 387.358C809.942 386.896 811.095 386.189 812.064 385.253C813.034 384.311 813.785 383.142 814.313 381.738L820.352 383.427C819.715 385.464 818.648 387.25 817.146 388.785C815.643 390.32 813.791 391.518 811.588 392.368C809.38 393.219 806.903 393.647 804.15 393.647L804.156 393.629Z" fill="#090A3A"/>
<path d="M846.94 408.802C843.923 408.802 841.325 408.419 839.157 407.655C836.984 406.89 835.183 405.892 833.743 404.653C832.304 403.415 831.163 402.091 830.314 400.688L835.292 397.213C835.854 397.949 836.571 398.799 837.437 399.758C838.303 400.716 839.49 401.549 840.998 402.263C842.507 402.976 844.491 403.33 846.94 403.33C850.22 403.33 852.933 402.542 855.067 400.956C857.2 399.375 858.273 396.899 858.273 393.527V385.31H857.745C857.286 386.046 856.638 386.959 855.801 388.037C854.963 389.116 853.765 390.074 852.199 390.908C850.639 391.741 848.534 392.157 845.885 392.157C842.604 392.157 839.656 391.387 837.053 389.84C834.449 388.294 832.396 386.046 830.882 383.096C829.373 380.146 828.616 376.563 828.616 372.351C828.616 368.14 829.35 364.591 830.813 361.51C832.275 358.429 834.317 356.038 836.926 354.343C839.536 352.648 842.558 351.798 845.982 351.798C848.632 351.798 850.737 352.232 852.297 353.105C853.857 353.978 855.061 354.959 855.898 356.055C856.736 357.151 857.384 358.052 857.843 358.754H858.479V352.329H864.518V393.949C864.518 397.424 863.727 400.26 862.15 402.445C860.572 404.631 858.45 406.24 855.795 407.267C853.14 408.294 850.186 408.807 846.94 408.807V408.802ZM846.728 386.571C849.234 386.571 851.35 386 853.082 384.859C854.814 383.718 856.128 382.075 857.028 379.935C857.929 377.795 858.376 375.227 858.376 372.243C858.376 369.259 857.934 366.754 857.051 364.523C856.168 362.292 854.86 360.546 853.134 359.279C851.402 358.012 849.268 357.385 846.728 357.385C844.187 357.385 841.876 358.052 840.121 359.387C838.366 360.723 837.053 362.514 836.175 364.762C835.298 367.011 834.862 369.504 834.862 372.243C834.862 374.982 835.309 377.532 836.198 379.684C837.087 381.835 838.412 383.518 840.167 384.739C841.922 385.96 844.107 386.571 846.722 386.571H846.728Z" fill="#090A3A"/>
<path d="M879.137 345.579C877.921 345.579 876.872 345.168 876 344.34C875.128 343.513 874.687 342.52 874.687 341.362C874.687 340.204 875.123 339.211 876 338.383C876.872 337.556 877.921 337.145 879.137 337.145C880.353 337.145 881.403 337.556 882.274 338.383C883.146 339.211 883.588 340.204 883.588 341.362C883.588 342.52 883.152 343.513 882.274 344.34C881.403 345.168 880.353 345.579 879.137 345.579ZM875.96 392.785V352.323H882.205V392.785H875.96Z" fill="#090A3A"/>
<path d="M922.455 361.385L916.84 362.965C916.485 362.035 915.968 361.128 915.292 360.238C914.615 359.353 913.692 358.617 912.527 358.041C911.363 357.464 909.872 357.173 908.054 357.173C905.565 357.173 903.494 357.738 901.843 358.874C900.191 360.009 899.365 361.442 899.365 363.182C899.365 364.728 899.927 365.949 901.057 366.845C902.187 367.741 903.953 368.489 906.35 369.082L912.39 370.554C916.026 371.433 918.733 372.774 920.516 374.571C922.3 376.369 923.189 378.685 923.189 381.51C923.189 383.826 922.524 385.898 921.187 387.724C919.857 389.55 917.999 390.987 915.613 392.043C913.233 393.099 910.457 393.624 907.297 393.624C903.15 393.624 899.715 392.728 896.996 390.936C894.278 389.144 892.557 386.531 891.835 383.085L897.765 381.612C898.333 383.792 899.399 385.424 900.982 386.514C902.56 387.604 904.63 388.146 907.194 388.146C910.107 388.146 912.424 387.53 914.145 386.291C915.865 385.053 916.725 383.564 916.725 381.823C916.725 380.42 916.232 379.239 915.24 378.28C914.254 377.321 912.734 376.608 910.686 376.135L903.907 374.554C900.185 373.675 897.45 372.312 895.712 370.457C893.974 368.603 893.102 366.28 893.102 363.49C893.102 361.208 893.75 359.188 895.047 357.43C896.343 355.673 898.121 354.297 900.369 353.293C902.617 352.295 905.175 351.793 908.031 351.793C912.057 351.793 915.217 352.671 917.523 354.429C919.828 356.186 921.463 358.503 922.432 361.385H922.455Z" fill="#090A3A"/>
<path d="M950.305 352.323V357.59H929.228V352.323H950.305ZM935.37 342.629H941.622V381.19C941.622 382.948 941.88 384.26 942.402 385.127C942.924 385.995 943.595 386.577 944.415 386.868C945.235 387.159 946.107 387.301 947.024 387.301C947.713 387.301 948.28 387.261 948.722 387.182C949.164 387.102 949.513 387.039 949.783 386.982L951.056 392.568C950.632 392.728 950.041 392.888 949.284 393.053C948.527 393.219 947.563 393.304 946.399 393.304C944.633 393.304 942.906 392.928 941.22 392.169C939.534 391.415 938.141 390.263 937.039 388.716C935.938 387.17 935.382 385.224 935.382 382.868V342.617L935.37 342.629Z" fill="#090A3A"/>
<path d="M959.728 392.785V352.323H965.767V358.434H966.191C966.931 356.432 968.273 354.811 970.217 353.562C972.156 352.312 974.347 351.69 976.784 351.69C977.243 351.69 977.816 351.701 978.505 351.718C979.193 351.735 979.715 351.764 980.065 351.798V358.121C979.852 358.069 979.371 357.984 978.619 357.87C977.868 357.755 977.076 357.698 976.251 357.698C974.272 357.698 972.511 358.109 970.969 358.925C969.426 359.741 968.204 360.865 967.315 362.297C966.426 363.73 965.979 365.356 965.979 367.182V392.785H959.733H959.728Z" fill="#090A3A"/>
<path d="M992.774 407.957C991.713 407.957 990.772 407.872 989.94 407.706C989.109 407.541 988.535 407.375 988.22 407.221L989.809 401.743C991.328 402.131 992.67 402.268 993.835 402.166C994.999 402.057 996.037 401.544 996.943 400.625C997.849 399.701 998.687 398.217 999.444 396.163L1000.61 393.002L985.57 352.329H992.349L1003.57 384.574H1004L1015.22 352.329H1022L1004.74 398.691C1003.96 400.779 1003 402.514 1001.85 403.895C1000.71 405.275 999.375 406.297 997.866 406.964C996.358 407.632 994.661 407.963 992.768 407.963L992.774 407.957Z" fill="#090A3A"/>
<path d="M434.96 237.215H459.031C466.727 237.215 472.789 239.018 477.217 242.63C481.644 246.168 483.858 250.864 483.858 256.718C483.858 260.764 482.694 264.302 480.371 267.337C478.123 270.373 475.215 272.319 471.66 273.186C475.651 273.911 478.995 275.748 481.679 278.709C484.437 281.671 485.82 285.642 485.82 290.629C485.82 296.41 483.824 301.14 479.832 304.826C475.909 308.438 470.358 310.241 463.171 310.241H434.966V237.215H434.96ZM446.178 246.425V268.855H456.306C461.749 268.855 465.781 267.771 468.396 265.603C471.08 263.366 472.428 260.473 472.428 256.935C472.428 253.831 471.229 251.303 468.832 249.352C466.509 247.4 462.954 246.425 458.159 246.425H446.178ZM446.178 301.032H460.556C469.778 301.032 474.389 297.237 474.389 289.654C474.389 285.968 473.116 283.115 470.576 281.095C468.109 279.001 464.405 277.951 459.467 277.951H446.178V301.032Z" fill="#090A3A"/>
<path d="M532.108 255.309H542.781V310.241H532.108V300.815C529.206 307.531 523.471 310.892 514.903 310.892C509.46 310.892 505.136 309.3 501.941 306.121C498.747 302.869 497.147 298.43 497.147 292.792V255.303H507.929V290.19C507.929 293.945 508.835 296.838 510.653 298.858C512.54 300.809 515.121 301.785 518.384 301.785C522.525 301.785 525.828 300.341 528.294 297.448C530.835 294.561 532.108 290.475 532.108 285.203V255.297V255.309Z" fill="#090A3A"/>
<path d="M586.214 233.529V242.847C584.545 242.122 582.801 241.763 580.989 241.763C575.69 241.763 573.04 244.907 573.04 251.189V255.309H584.694V263.543H573.04V310.241H562.367V263.543H553.546V255.309H562.367V251.081C562.367 245.375 563.893 240.895 566.944 237.643C570.064 234.322 574.422 232.662 580.014 232.662C582.044 232.662 584.115 232.953 586.22 233.529H586.214Z" fill="#090A3A"/>
<path d="M644.489 248.895C643.496 246.584 642.12 244.553 640.359 242.801C638.599 241.05 636.557 239.68 634.234 238.693C631.911 237.706 629.422 237.215 626.767 237.215C624.112 237.215 621.623 237.706 619.3 238.693C616.977 239.68 614.941 241.05 613.175 242.801C611.414 244.553 610.038 246.584 609.045 248.895C608.053 251.206 607.56 253.683 607.56 256.325C607.56 258.967 608.053 261.443 609.045 263.754C610.038 266.065 611.42 268.096 613.175 269.848C614.935 271.6 616.977 272.969 619.3 273.956C621.623 274.944 624.112 275.434 626.767 275.434C629.422 275.434 631.917 274.944 634.234 273.956C636.557 272.969 638.599 271.594 640.359 269.848C642.12 268.096 643.496 266.065 644.489 263.754C645.481 261.443 645.974 258.972 645.974 256.325C645.974 253.677 645.481 251.201 644.489 248.895ZM640.285 264.153C638.874 266.504 636.993 268.376 634.63 269.78C632.267 271.183 629.646 271.879 626.767 271.879C623.888 271.879 621.261 271.183 618.904 269.78C616.547 268.376 614.66 266.504 613.249 264.153C611.838 261.802 611.139 259.195 611.139 256.33C611.139 253.466 611.838 250.853 613.249 248.507C614.66 246.156 616.541 244.279 618.904 242.881C621.267 241.477 623.888 240.776 626.767 240.776C629.646 240.776 632.273 241.477 634.63 242.881C636.993 244.279 638.874 246.156 640.285 248.507C641.696 250.858 642.395 253.466 642.395 256.33C642.395 259.195 641.696 261.808 640.285 264.153Z" fill="#090A3A"/>
<path d="M631.229 257.922C631.229 257.922 631.258 257.905 631.269 257.899C632.135 257.437 632.863 256.775 633.426 255.908C633.993 255.041 634.28 254.008 634.28 252.815C634.28 251.623 634.005 250.619 633.454 249.791C632.904 248.975 632.204 248.353 631.361 247.925C630.524 247.509 629.652 247.292 628.757 247.292H620.258V264.924H623.36V258.59H628.224L631.55 264.924H635.008L631.235 257.917L631.229 257.922ZM623.36 249.711H627.822C628.591 249.711 629.302 249.951 629.95 250.425C630.592 250.904 630.925 251.703 630.925 252.815C630.925 253.928 630.598 254.733 629.95 255.315C629.302 255.897 628.568 256.182 627.748 256.182H623.36V249.706V249.711Z" fill="#090A3A"/>
</svg>
