<svg width="1200" height="630" viewBox="0 0 1200 630" fill="none" xmlns="http://www.w3.org/2000/svg">
<rect width="1200" height="630" fill="white"/>
<path d="M381.217 216H367V371.57H381.217V216Z" fill="#77E1FF"/>
<path d="M409.647 216H395.429V371.57H409.647V216Z" fill="#77E1FF"/>
<path d="M438.076 216H423.858V371.57H438.076V216Z" fill="#77E1FF"/>
<path d="M466.505 216H452.288V371.57H466.505V216Z" fill="#77E1FF"/>
<path d="M494.94 216H480.723V371.57H494.94V216Z" fill="#77E1FF"/>
<path d="M523.369 216H509.152V371.57H523.369V216Z" fill="#77E1FF"/>
<path d="M423.864 258.43H409.647V414H423.864V258.43Z" fill="#161EDE"/>
<path d="M452.293 258.43H438.076V414H452.293V258.43Z" fill="#161EDE"/>
<path d="M480.723 258.43H466.505V414H480.723V258.43Z" fill="#161EDE"/>
<path d="M509.152 258.43H494.934V414H509.152V258.43Z" fill="#161EDE"/>
<path d="M537.581 258.43H523.363V414H537.581V258.43Z" fill="#161EDE"/>
<path d="M566.01 258.43H551.793V414H566.01V258.43Z" fill="#161EDE"/>
<path d="M664.351 356.696H657.817C657.429 354.818 656.762 353.163 655.803 351.743C654.845 350.322 653.686 349.124 652.328 348.148C650.965 347.172 649.464 346.442 647.809 345.951C646.16 345.46 644.437 345.215 642.645 345.215C639.381 345.215 636.425 346.042 633.784 347.691C631.142 349.34 629.042 351.777 627.49 354.99C625.938 358.202 625.156 362.145 625.156 366.818C625.156 371.491 625.932 375.434 627.49 378.647C629.048 381.859 631.142 384.296 633.784 385.945C636.425 387.594 639.381 388.421 642.645 388.421C644.437 388.421 646.16 388.176 647.809 387.685C649.458 387.194 650.965 386.458 652.328 385.483C653.686 384.507 654.85 383.303 655.803 381.876C656.762 380.444 657.429 378.801 657.817 376.935H664.351C663.86 379.691 662.964 382.162 661.663 384.336C660.362 386.51 658.748 388.364 656.819 389.882C654.885 391.4 652.722 392.558 650.325 393.346C647.929 394.133 645.367 394.532 642.645 394.532C638.046 394.532 633.955 393.408 630.371 391.16C626.788 388.912 623.969 385.717 621.915 381.574C619.861 377.431 618.834 372.513 618.834 366.824C618.834 361.135 619.861 356.216 621.915 352.074C623.969 347.931 626.788 344.736 630.371 342.487C633.955 340.239 638.046 339.115 642.645 339.115C645.367 339.115 647.929 339.509 650.325 340.302C652.722 341.089 654.885 342.248 656.819 343.766C658.753 345.283 660.368 347.126 661.663 349.3C662.959 351.474 663.86 353.939 664.351 356.718V356.696Z" fill="#090A3A"/>
<path d="M674.89 393.785V339.834H681.423V387.988H706.502V393.785H674.89V393.785Z" fill="#090A3A"/>
<path d="M723.146 339.84V393.791H716.613V339.84H723.146Z" fill="#090A3A"/>
<path d="M622.96 237.215H647.031C654.727 237.215 660.789 239.018 665.217 242.63C669.644 246.168 671.858 250.864 671.858 256.718C671.858 260.764 670.694 264.302 668.371 267.337C666.123 270.373 663.215 272.319 659.66 273.186C663.651 273.911 666.995 275.748 669.679 278.709C672.437 281.671 673.82 285.642 673.82 290.629C673.82 296.41 671.824 301.14 667.832 304.826C663.909 308.438 658.358 310.241 651.171 310.241H622.966V237.215H622.96ZM634.178 246.425V268.855H644.306C649.749 268.855 653.781 267.771 656.396 265.603C659.08 263.366 660.428 260.473 660.428 256.935C660.428 253.831 659.229 251.303 656.832 249.352C654.509 247.4 650.954 246.425 646.159 246.425H634.178ZM634.178 301.032H648.556C657.778 301.032 662.389 297.237 662.389 289.654C662.389 285.968 661.116 283.115 658.576 281.095C656.109 279.001 652.405 277.951 647.467 277.951H634.178V301.032V301.032Z" fill="#090A3A"/>
<path d="M720.108 255.309H730.781V310.241H720.108V300.815C717.206 307.531 711.471 310.892 702.903 310.892C697.46 310.892 693.136 309.3 689.941 306.121C686.747 302.869 685.147 298.43 685.147 292.792V255.303H695.929V290.19C695.929 293.945 696.835 296.838 698.653 298.858C700.54 300.809 703.121 301.785 706.384 301.785C710.525 301.785 713.828 300.341 716.294 297.448C718.835 294.561 720.108 290.475 720.108 285.203V255.297V255.309Z" fill="#090A3A"/>
<path d="M774.214 233.529V242.847C772.545 242.122 770.801 241.763 768.989 241.763C763.69 241.763 761.04 244.907 761.04 251.189V255.309H772.694V263.543H761.04V310.241H750.367V263.543H741.546V255.309H750.367V251.081C750.367 245.375 751.893 240.895 754.944 237.643C758.064 234.322 762.422 232.662 768.014 232.662C770.044 232.662 772.115 232.953 774.22 233.529H774.214Z" fill="#090A3A"/>
<path d="M832.489 248.895C831.496 246.584 830.12 244.553 828.359 242.801C826.599 241.05 824.557 239.68 822.234 238.693C819.911 237.706 817.422 237.215 814.767 237.215C812.112 237.215 809.623 237.706 807.3 238.693C804.977 239.68 802.941 241.05 801.175 242.801C799.414 244.553 798.038 246.584 797.045 248.895C796.053 251.206 795.56 253.683 795.56 256.325C795.56 258.967 796.053 261.443 797.045 263.754C798.038 266.065 799.42 268.096 801.175 269.848C802.935 271.6 804.977 272.969 807.3 273.956C809.623 274.944 812.112 275.434 814.767 275.434C817.422 275.434 819.917 274.944 822.234 273.956C824.557 272.969 826.599 271.594 828.359 269.848C830.12 268.096 831.496 266.065 832.489 263.754C833.481 261.443 833.974 258.972 833.974 256.325C833.974 253.677 833.481 251.201 832.489 248.895ZM828.285 264.153C826.874 266.504 824.993 268.376 822.63 269.78C820.267 271.183 817.646 271.879 814.767 271.879C811.888 271.879 809.261 271.183 806.904 269.78C804.547 268.376 802.66 266.504 801.249 264.153C799.838 261.802 799.139 259.195 799.139 256.33C799.139 253.466 799.838 250.853 801.249 248.507C802.66 246.156 804.541 244.279 806.904 242.881C809.267 241.477 811.888 240.776 814.767 240.776C817.646 240.776 820.273 241.477 822.63 242.881C824.993 244.279 826.874 246.156 828.285 248.507C829.696 250.858 830.395 253.466 830.395 256.33C830.395 259.195 829.696 261.808 828.285 264.153Z" fill="#090A3A"/>
<path d="M819.229 257.922C819.229 257.922 819.258 257.905 819.269 257.899C820.135 257.437 820.863 256.775 821.426 255.908C821.993 255.041 822.28 254.008 822.28 252.815C822.28 251.623 822.005 250.619 821.454 249.791C820.904 248.975 820.204 248.353 819.361 247.925C818.524 247.509 817.652 247.292 816.757 247.292H808.258V264.924H811.36V258.59H816.224L819.55 264.924H823.008L819.235 257.917L819.229 257.922ZM811.36 249.711H815.822C816.591 249.711 817.302 249.951 817.95 250.425C818.592 250.904 818.925 251.703 818.925 252.815C818.925 253.928 818.598 254.733 817.95 255.315C817.302 255.897 816.568 256.182 815.748 256.182H811.36V249.706V249.711Z" fill="#090A3A"/>
</svg>
